<?xml version="1.0" standalone="no"?><!DOCTYPE svg PUBLIC "-//W3C//DTD SVG 1.1//EN" "http://www.w3.org/Graphics/SVG/1.1/DTD/svg11.dtd"><svg t="1513410295920" class="icon" style="" viewBox="0 0 1024 1024" version="1.1" xmlns="http://www.w3.org/2000/svg" p-id="1892" xmlns:xlink="http://www.w3.org/1999/xlink" width="32" height="32"><defs><style type="text/css"></style></defs><path d="M512 1018.368c-280.064 0-506.88-226.816-506.88-506.88s226.816-506.88 506.88-506.88v23.04c-267.264 0-483.84 216.576-483.84 483.84s216.576 483.84 483.84 483.84 483.84-216.576 483.84-483.84h23.04c0 280.064-226.816 506.88-506.88 506.88z m240.64-238.08l-225.28-225.28c-4.608 1.536-9.728 3.072-15.36 3.072-25.6 0-46.08-20.48-46.08-46.08 0-16.896 9.216-31.744 23.04-39.936V189.44c0-12.8 10.24-23.04 23.04-23.04s23.04 10.24 23.04 23.04v282.624c13.824 8.192 23.04 22.528 23.04 39.936 0 11.264-4.608 22.016-11.264 30.208l222.208 222.208c4.608 4.608 4.608 11.776 0 16.384-4.608 3.584-11.776 3.584-16.384-0.512z" p-id="1893"></path></svg>