<?xml version="1.0" standalone="no"?><!DOCTYPE svg PUBLIC "-//W3C//DTD SVG 1.1//EN" "http://www.w3.org/Graphics/SVG/1.1/DTD/svg11.dtd"><svg t="1493006368152" class="icon" style="" viewBox="0 0 1024 1024" version="1.1" xmlns="http://www.w3.org/2000/svg" p-id="2361" xmlns:xlink="http://www.w3.org/1999/xlink" width="32" height="32"><defs><style type="text/css"></style></defs><path d="M856 192l0 179.2 56 0L912 159.2c0-51.2-47.2-47.2-47.2-47.2L652.8 112l0 56L832 168C832 168 856 168.8 856 192zM168 192C168 168.8 192 168 192 168l179.2 0 0-56L159.2 112c0 0-47.2-4.8-47.2 47.2l0 212 56 0L168 192zM856 832 856 832c0 22.4-23.2 23.2-23.2 23.2L652.8 855.2l0 56 212 0c0 0 47.2 4 47.2-47.2L912 652.8l-56 0L856 832zM168 832 168 652.8l-56 0 0 212c0 51.2 47.2 47.2 47.2 47.2l212 0 0-56L192 856C192 856 168 855.2 168 832zM112 471.2l800 0 0 72L112 543.2 112 471.2 112 471.2z" p-id="2362" fill="#323330"></path></svg>