<?xml version="1.0" standalone="no"?><!DOCTYPE svg PUBLIC "-//W3C//DTD SVG 1.1//EN" "http://www.w3.org/Graphics/SVG/1.1/DTD/svg11.dtd"><svg t="1494255427021" class="icon" style="" viewBox="0 0 1024 1024" version="1.1" xmlns="http://www.w3.org/2000/svg" p-id="3293" xmlns:xlink="http://www.w3.org/1999/xlink" width="48" height="48"><defs><style type="text/css"></style></defs><path d="M512 0C229.236364 0 0 229.236364 0 512s229.236364 512 512 512 512-229.236364 512-512S794.763636 0 512 0zM437.992727 523.403636c-0.232727 0.698182-0.465455 1.163636-0.698182 1.861818-0.232727 0.698182-0.465455 1.163636-0.698182 1.861818-0.232727 0.698182-0.465455 1.163636-0.698182 1.861818-0.232727 0.698182-0.465455 1.163636-0.698182 1.861818-0.232727 0.698182-0.465455 1.163636-0.698182 1.861818-0.232727 0.698182-0.465455 1.163636-0.698182 1.861818-0.232727 0.698182-0.465455 1.163636-0.698182 1.861818-0.232727 0.698182-0.465455 1.163636-0.698182 1.861818-0.232727 0.698182-0.465455 1.163636-0.465455 1.861818-0.232727 0.698182-0.465455 1.163636-0.465455 1.861818-0.232727 0.698182-0.465455 1.163636-0.465455 1.861818-0.232727 0.698182-0.232727 1.163636-0.465455 1.861818-0.232727 0.698182-0.465455 1.163636-0.465455 1.861818-0.232727 0.698182-0.232727 1.163636-0.465455 1.861818-0.232727 0.698182-0.232727 1.163636-0.465455 1.861818-0.232727 0.698182-0.232727 1.163636-0.465455 1.861818-0.232727 0.698182-0.232727 1.163636-0.465455 1.861818-0.232727 0.698182-0.232727 1.163636-0.465455 1.861818-0.232727 0.698182-0.232727 1.163636-0.465455 1.861818-0.232727 0.698182-0.232727 1.163636-0.465455 1.861818-0.232727 0.698182-0.232727 1.163636-0.465455 1.861818 0 0.698182-0.232727 1.163636-0.232727 1.861818 0 0.698182-0.232727 1.163636-0.232727 1.861818 0 0.698182-0.232727 1.163636-0.232727 1.861818 0 0.698182-0.232727 1.163636-0.232727 1.861818 0 0.698182-0.232727 1.163636-0.232727 1.861818 0 0.698182-0.232727 1.163636-0.232727 1.861818 0 0.698182-0.232727 1.163636-0.232727 1.861818 0 0.698182-0.232727 1.163636-0.232727 1.861818 0 0.698182-0.232727 1.163636-0.232727 1.861818 0 0.698182 0 1.163636-0.232727 1.861818 0 0.698182-0.232727 1.163636-0.232727 1.861818 0 0.698182 0 1.163636-0.232727 1.861818 0 0.698182 0 1.163636-0.232727 1.861818 0 0.698182 0 1.163636-0.232727 1.861818 0 0.698182 0 1.163636 0 1.861818 0 0.698182 0 1.163636 0 1.861818 0 0.698182 0 1.163636 0 1.861818 0 0.698182 0 1.163636 0 1.861818 0 0.698182 0 1.163636 0 1.861818 0 0.698182 0 1.163636 0 1.861818l0 0.232727c0 0.465455 0 1.163636 0 1.629091 0 0.698182 0 1.163636 0 1.861818 0 0.698182 0 1.163636 0 1.861818 0 0.698182 0 1.163636 0 1.861818 0 0.698182 0 1.163636 0 1.861818 0 0.698182 0 1.163636 0 1.861818 0 0.698182 0 1.163636 0.232727 1.861818 0 0.698182 0 1.163636 0.232727 1.861818 0 0.698182 0 1.163636 0.232727 1.861818 0 0.698182 0 1.163636 0.232727 1.861818 0 0.698182 0.232727 1.163636 0.232727 1.861818 0 0.698182 0.232727 1.163636 0.232727 1.861818 0 0.698182 0.232727 1.163636 0.232727 1.861818 0 0.698182 0.232727 1.163636 0.232727 1.861818 0 0.698182 0.232727 1.163636 0.232727 1.861818 0 0.698182 0.232727 1.163636 0.232727 1.861818 0 0.698182 0.232727 1.163636 0.232727 1.861818 0 0.698182 0.232727 1.163636 0.232727 1.861818 0 0.698182 0.232727 1.163636 0.232727 1.861818 0 0.698182 0.232727 1.163636 0.465455 1.861818 0.232727 0.698182 0.232727 1.163636 0.465455 1.861818 0.232727 0.698182 0.232727 1.163636 0.465455 1.861818 0.232727 0.698182 0.232727 1.163636 0.465455 1.861818 0.232727 0.698182 0.232727 1.163636 0.465455 1.861818 0.232727 0.698182 0.232727 1.163636 0.465455 1.861818 0.232727 0.698182 0.232727 1.163636 0.465455 1.861818 0.232727 0.698182 0.232727 1.163636 0.465455 1.861818 0.232727 0.698182 0.232727 1.163636 0.465455 1.861818 0.232727 0.698182 0.232727 1.163636 0.465455 1.861818l0.232727 0.930909c-4.189091 0.232727-8.610909 0.698182-12.8 0.698182-3.723636 0.232727-7.214545 0.232727-10.938182 0.232727-3.490909 0-6.981818 0-10.472727-0.232727-7.214545-0.232727-13.963636-0.930909-20.712727-1.861818-4.189091-0.465455-8.145455-1.163636-12.334545-1.861818-3.490909-0.465455-6.749091-1.163636-10.24-1.861818-3.025455-0.465455-6.283636-1.163636-9.309091-1.861818-3.025455-0.698182-5.818182-1.163636-8.843636-1.861818-2.792727-0.698182-5.818182-1.163636-8.843636-1.861818-2.792727-0.465455-5.585455-1.163636-8.378182-1.629091l-3.258182 1.629091-3.723636 1.861818L307.2 644.654545l-3.723636 1.861818-3.723636 1.861818-3.723636 1.861818-3.723636 1.861818-3.723636 1.861818-3.723636 1.861818-3.723636 1.861818-3.723636 1.861818L274.618182 660.945455l-3.723636 1.861818-3.723636 1.861818-3.723636 1.861818-3.723636 1.861818-3.723636 1.861818-3.723636 1.861818-3.723636 1.861818-3.723636 1.861818-3.723636 1.861818-3.723636 1.861818-3.723636 1.861818-3.723636 1.861818-2.56 1.396364 0.465455-1.396364 0.698182-1.861818 0.698182-1.861818 0.698182-1.861818 0.698182-1.861818 0.698182-1.861818 0.698182-1.861818 0.698182-1.861818 0.698182-1.861818 0.698182-1.861818 0.698182-1.861818 0.698182-1.861818 0.698182-1.861818 0.698182-1.861818 0.698182-1.861818 0.698182-1.861818 0.698182-1.861818 0.698182-1.861818 0.698182-1.861818 0.698182-1.861818 0.698182-1.861818 0.698182-1.861818 0.698182-1.861818 0.698182-1.861818 0.698182-1.861818 0.698182-1.861818 0.698182-1.861818 0.698182-1.861818 0.698182-1.861818 0.698182-1.861818 0.698182-1.861818 0.698182-1.861818 0.698182-1.861818 0.698182-1.861818 0.698182-1.861818 0.698182-1.861818 0.698182-1.861818 0.698182-1.861818 0.698182-1.861818 0.698182-1.861818 0.698182-1.861818 0.698182-1.861818 0.465455-1.163636c-0.465455-0.232727-0.698182-0.465455-1.163636-0.698182-0.930909-0.698182-1.629091-1.163636-2.56-1.861818-0.930909-0.698182-1.629091-1.163636-2.56-1.861818-0.930909-0.698182-1.629091-1.163636-2.56-1.861818-0.698182-0.698182-1.629091-1.163636-2.327273-1.861818-0.698182-0.698182-1.629091-1.163636-2.327273-1.861818-0.698182-0.698182-1.629091-1.163636-2.327273-1.861818-0.698182-0.698182-1.629091-1.163636-2.327273-1.861818-0.698182-0.698182-1.396364-1.163636-2.327273-1.861818-0.698182-0.698182-1.396364-1.163636-2.094545-1.861818-0.698182-0.698182-1.396364-1.163636-2.094545-1.861818-0.698182-0.698182-1.396364-1.163636-2.094545-1.861818-0.698182-0.698182-1.396364-1.163636-2.094545-1.861818-0.698182-0.698182-1.396364-1.163636-2.094545-1.861818-0.698182-0.698182-1.396364-1.163636-2.094545-1.861818-0.698182-0.698182-1.396364-1.163636-1.861818-1.861818-0.698182-0.698182-1.396364-1.163636-1.861818-1.861818-0.698182-0.698182-1.163636-1.163636-1.861818-1.861818-0.698182-0.698182-1.163636-1.163636-1.861818-1.861818-0.698182-0.698182-1.163636-1.163636-1.861818-1.861818-0.698182-0.698182-1.163636-1.163636-1.861818-1.861818-0.698182-0.698182-1.163636-1.163636-1.629091-1.861818-0.465455-0.698182-1.163636-1.163636-1.629091-1.861818-0.465455-0.698182-1.163636-1.163636-1.629091-1.861818-0.465455-0.698182-1.163636-1.163636-1.629091-1.861818-0.465455-0.698182-1.163636-1.163636-1.629091-1.861818-0.465455-0.698182-1.163636-1.163636-1.629091-1.861818-0.465455-0.698182-0.930909-1.163636-1.629091-1.861818-0.465455-0.698182-0.930909-1.163636-1.629091-1.861818-0.465455-0.698182-0.930909-1.163636-1.396364-1.861818-0.465455-0.698182-0.930909-1.163636-1.396364-1.861818-0.465455-0.698182-0.930909-1.163636-1.396364-1.861818-0.465455-0.698182-0.930909-1.163636-1.396364-1.861818-0.465455-0.698182-0.930909-1.163636-1.396364-1.861818-0.465455-0.698182-0.930909-1.163636-1.396364-1.861818-0.465455-0.698182-0.930909-1.163636-1.396364-1.861818-0.465455-0.698182-0.930909-1.163636-1.396364-1.861818-0.465455-0.698182-0.930909-1.163636-1.163636-1.861818-0.465455-0.698182-0.930909-1.163636-1.163636-1.861818-0.465455-0.698182-0.698182-1.163636-1.163636-1.861818-0.465455-0.698182-0.698182-1.163636-1.163636-1.861818-0.465455-0.698182-0.698182-1.163636-1.163636-1.861818-0.465455-0.698182-0.698182-1.163636-1.163636-1.861818-0.465455-0.698182-0.698182-1.163636-1.163636-1.861818-0.465455-0.698182-0.698182-1.163636-1.163636-1.861818-0.232727-0.698182-0.698182-1.163636-0.930909-1.861818-0.232727-0.698182-0.698182-1.163636-0.930909-1.861818-0.232727-0.698182-0.698182-1.163636-0.930909-1.861818-0.232727-0.698182-0.698182-1.163636-0.930909-1.861818-0.232727-0.698182-0.698182-1.163636-0.930909-1.861818-0.232727-0.698182-0.698182-1.163636-0.930909-1.861818-0.232727-0.698182-0.698182-1.163636-0.930909-1.861818-0.232727-0.698182-0.465455-1.163636-0.930909-1.861818-0.232727-0.698182-0.465455-1.163636-0.930909-1.861818-0.232727-0.698182-0.465455-1.163636-0.930909-1.861818-0.232727-0.698182-0.465455-1.163636-0.698182-1.861818-0.232727-0.698182-0.465455-1.163636-0.698182-1.861818-0.232727-0.698182-0.465455-1.163636-0.698182-1.861818-0.232727-0.698182-0.465455-1.163636-0.698182-1.861818-0.232727-0.698182-0.465455-1.163636-0.698182-1.861818-0.232727-0.698182-0.465455-1.163636-0.698182-1.861818-0.232727-0.698182-0.465455-1.163636-0.698182-1.861818-0.232727-0.698182-0.465455-1.163636-0.698182-1.861818-0.232727-0.698182-0.465455-1.163636-0.698182-1.861818-0.232727-0.698182-0.465455-1.163636-0.698182-1.861818-0.232727-0.698182-0.465455-1.163636-0.465455-1.861818-0.232727-0.698182-0.465455-1.163636-0.465455-1.861818-0.232727-0.698182-0.465455-1.163636-0.465455-1.861818-0.232727-0.698182-0.232727-1.163636-0.465455-1.861818-0.232727-0.698182-0.232727-1.163636-0.465455-1.861818-0.232727-0.698182-0.232727-1.163636-0.465455-1.861818-0.232727-0.698182-0.232727-1.163636-0.465455-1.861818-0.232727-0.698182-0.232727-1.163636-0.465455-1.861818-0.232727-0.698182-0.232727-1.163636-0.465455-1.861818-0.232727-0.698182-0.232727-1.163636-0.465455-1.861818-0.232727-0.698182-0.232727-1.163636-0.465455-1.861818-0.232727-0.698182-0.232727-1.163636-0.232727-1.861818 0-0.698182-0.232727-1.163636-0.232727-1.861818 0-0.698182-0.232727-1.163636-0.232727-1.861818 0-0.698182-0.232727-1.163636-0.232727-1.861818 0-0.698182-0.232727-1.163636-0.232727-1.861818 0-0.698182-0.232727-1.163636-0.232727-1.861818 0-0.698182-0.232727-1.163636-0.232727-1.861818 0-0.698182-0.232727-1.163636-0.232727-1.861818 0-0.698182-0.232727-1.163636-0.232727-1.861818 0-0.698182 0-1.163636-0.232727-1.861818 0-0.698182 0-1.163636-0.232727-1.861818 0-0.698182 0-1.163636-0.232727-1.861818 0-0.698182 0-1.163636-0.232727-1.861818 0-0.698182 0-1.163636 0-1.861818 0-0.698182 0-1.163636 0-1.861818 0-0.698182 0-1.163636 0-1.861818 0-0.698182 0-1.163636 0-1.861818 0-0.698182 0-1.163636 0-1.861818 0-0.698182 0-1.163636 0-1.861818 0-0.232727 0-0.698182 0-0.930909 0-0.232727 0-0.698182 0-0.930909 0-0.698182 0-1.163636 0-1.861818 0-0.698182 0-1.163636 0-1.861818 0-0.698182 0-1.163636 0-1.861818 0-0.698182 0-1.163636 0-1.861818 0-0.698182 0-1.163636 0-1.861818 0-0.698182 0-1.163636 0-1.861818 0-0.698182 0-1.163636 0.232727-1.861818 0-0.698182 0-1.163636 0.232727-1.861818 0-0.698182 0-1.163636 0.232727-1.861818 0-0.698182 0.232727-1.163636 0.232727-1.861818 0-0.698182 0.232727-1.163636 0.232727-1.861818 0-0.698182 0.232727-1.163636 0.232727-1.861818 0-0.698182 0.232727-1.163636 0.232727-1.861818 0-0.698182 0.232727-1.163636 0.232727-1.861818 0-0.698182 0.232727-1.163636 0.232727-1.861818 0-0.698182 0.232727-1.163636 0.232727-1.861818 0-0.698182 0.232727-1.163636 0.232727-1.861818 0-0.698182 0.232727-1.163636 0.232727-1.861818 0-0.698182 0.232727-1.163636 0.465455-1.861818 0-0.698182 0.232727-1.163636 0.465455-1.861818 0.232727-0.698182 0.232727-1.163636 0.465455-1.861818 0.232727-0.698182 0.232727-1.163636 0.465455-1.861818 0.232727-0.698182 0.232727-1.163636 0.465455-1.861818s0.232727-1.163636 0.465455-1.861818c0.232727-0.698182 0.232727-1.163636 0.465455-1.861818 0.232727-0.698182 0.232727-1.163636 0.465455-1.861818 0.232727-0.698182 0.232727-1.163636 0.465455-1.861818 0.232727-0.698182 0.232727-1.163636 0.465455-1.861818 0.232727-0.698182 0.232727-1.163636 0.465455-1.861818 0.232727-0.698182 0.465455-1.163636 0.465455-1.861818 0.232727-0.698182 0.465455-1.163636 0.465455-1.861818 0.232727-0.698182 0.465455-1.163636 0.465455-1.861818 0.232727-0.698182 0.465455-1.163636 0.698182-1.861818 0.232727-0.698182 0.465455-1.163636 0.698182-1.861818 0.232727-0.698182 0.465455-1.163636 0.698182-1.861818 0.232727-0.698182 0.465455-1.163636 0.698182-1.861818 0.232727-0.698182 0.465455-1.163636 0.698182-1.861818 0.232727-0.698182 0.465455-1.163636 0.698182-1.861818 0.232727-0.698182 0.465455-1.163636 0.698182-1.861818 0.232727-0.698182 0.465455-1.163636 0.698182-1.861818 0.232727-0.698182 0.465455-1.163636 0.698182-1.861818 0.232727-0.698182 0.465455-1.163636 0.698182-1.861818 0.232727-0.698182 0.465455-1.163636 0.698182-1.861818 0.232727-0.698182 0.465455-1.163636 0.930909-1.861818 0.232727-0.698182 0.465455-1.163636 0.930909-1.861818 0.232727-0.698182 0.465455-1.163636 0.930909-1.861818 0.232727-0.698182 0.698182-1.163636 0.930909-1.861818 0.232727-0.698182 0.698182-1.163636 0.930909-1.861818 0.232727-0.698182 0.698182-1.163636 0.930909-1.861818 0.232727-0.698182 0.698182-1.163636 0.930909-1.861818 0.232727-0.698182 0.698182-1.163636 0.930909-1.861818 0.232727-0.698182 0.698182-1.163636 0.930909-1.861818 0.232727-0.698182 0.698182-1.163636 1.163636-1.861818 0.465455-0.698182 0.698182-1.163636 1.163636-1.861818 0.465455-0.698182 0.698182-1.163636 1.163636-1.861818 0.465455-0.698182 0.698182-1.163636 1.163636-1.861818s0.698182-1.163636 1.163636-1.861818c0.465455-0.698182 0.698182-1.163636 1.163636-1.861818 0.465455-0.698182 0.698182-1.163636 1.163636-1.861818 0.465455-0.698182 0.930909-1.163636 1.163636-1.861818 0.465455-0.698182 0.930909-1.163636 1.163636-1.861818 0.465455-0.698182 0.930909-1.163636 1.163636-1.861818 0.465455-0.698182 0.930909-1.163636 1.396364-1.861818 0.465455-0.698182 0.930909-1.163636 1.396364-1.861818 0.465455-0.698182 0.930909-1.163636 1.396364-1.861818 0.465455-0.698182 0.930909-1.163636 1.396364-1.861818 0.465455-0.698182 0.930909-1.163636 1.396364-1.861818 0.465455-0.698182 0.930909-1.163636 1.396364-1.861818 0.465455-0.698182 0.930909-1.163636 1.396364-1.861818 0.465455-0.698182 0.930909-1.163636 1.629091-1.861818 0.465455-0.698182 0.930909-1.163636 1.629091-1.861818 0.465455-0.698182 1.163636-1.163636 1.629091-1.861818 0.465455-0.698182 1.163636-1.163636 1.629091-1.861818 0.465455-0.698182 1.163636-1.163636 1.629091-1.861818 0.465455-0.698182 1.163636-1.163636 1.629091-1.861818 0.465455-0.698182 1.163636-1.163636 1.629091-1.861818 0.698182-0.698182 1.163636-1.163636 1.861818-1.861818 0.698182-0.698182 1.163636-1.163636 1.861818-1.861818 0.698182-0.698182 1.163636-1.163636 1.861818-1.861818 0.698182-0.698182 1.163636-1.163636 1.861818-1.861818 0.698182-0.698182 1.396364-1.163636 1.861818-1.861818 0.698182-0.698182 1.396364-1.163636 2.094545-1.861818 0.698182-0.698182 1.396364-1.163636 2.094545-1.861818 0.698182-0.698182 1.396364-1.163636 2.094545-1.861818 0.698182-0.698182 1.396364-1.163636 2.094545-1.861818 0.698182-0.698182 1.396364-1.163636 2.094545-1.861818 0.698182-0.698182 1.396364-1.163636 2.327273-1.861818 0.698182-0.698182 1.629091-1.163636 2.327273-1.861818 0.698182-0.698182 1.629091-1.163636 2.327273-1.861818 0.698182-0.698182 1.629091-1.163636 2.327273-1.861818 0.930909-0.698182 1.629091-1.163636 2.56-1.861818 0.930909-0.698182 1.629091-1.163636 2.56-1.861818 0.930909-0.698182 1.861818-1.163636 2.56-1.861818 0.930909-0.698182 1.861818-1.163636 2.792727-1.861818 0.930909-0.698182 1.861818-1.163636 2.792727-1.861818 0.930909-0.698182 1.861818-1.163636 2.792727-1.861818 0.930909-0.698182 1.861818-1.163636 3.025455-1.861818 0.930909-0.698182 2.094545-1.163636 3.025455-1.861818 0.930909-0.698182 2.094545-1.163636 3.025455-1.861818 1.163636-0.698182 2.094545-1.163636 3.258182-1.861818 1.163636-0.698182 2.327273-1.163636 3.258182-1.861818 1.163636-0.698182 2.327273-1.163636 3.490909-1.861818 1.163636-0.698182 2.327273-1.163636 3.723636-1.861818 1.163636-0.698182 2.56-1.163636 3.723636-1.861818 1.396364-0.698182 2.56-1.163636 3.956364-1.861818 1.396364-0.698182 2.792727-1.163636 4.189091-1.861818 1.396364-0.698182 2.792727-1.163636 4.189091-1.861818 1.396364-0.698182 3.025455-1.163636 4.421818-1.861818 1.629091-0.698182 3.025455-1.163636 4.654545-1.861818 1.629091-0.698182 3.258182-1.163636 4.887273-1.861818 1.861818-0.698182 3.490909-1.163636 5.352727-1.861818 1.861818-0.698182 3.723636-1.163636 5.585455-1.861818 2.094545-0.698182 4.189091-1.163636 6.050909-1.861818 2.327273-0.698182 4.421818-1.163636 6.749091-1.861818 2.56-0.698182 4.887273-1.163636 7.447273-1.861818 2.792727-0.698182 5.585455-1.163636 8.610909-1.861818 3.490909-0.698182 6.749091-1.163636 10.24-1.861818 4.421818-0.698182 8.843636-1.396364 13.265455-1.861818 10.938182-1.163636 22.109091-1.861818 33.28-1.861818l2.56 0c11.170909 0 22.341818 0.698182 33.512727 1.861818 4.421818 0.465455 8.843636 1.163636 13.265455 1.861818 3.490909 0.465455 6.981818 1.163636 10.24 1.861818 2.792727 0.465455 5.818182 1.163636 8.610909 1.861818 2.56 0.465455 5.12 1.163636 7.68 1.861818 2.327273 0.465455 4.654545 1.163636 6.749091 1.861818 2.094545 0.465455 4.189091 1.163636 6.283636 1.861818 1.861818 0.698182 3.956364 1.163636 5.818182 1.861818 1.861818 0.698182 3.723636 1.163636 5.352727 1.861818 1.629091 0.698182 3.490909 1.163636 5.12 1.861818 1.629091 0.698182 3.258182 1.163636 4.887273 1.861818 1.629091 0.698182 3.025455 1.163636 4.654545 1.861818 1.396364 0.698182 3.025455 1.163636 4.421818 1.861818 1.396364 0.698182 2.792727 1.163636 4.189091 1.861818 1.396364 0.698182 2.792727 1.163636 3.956364 1.861818 1.396364 0.698182 2.56 1.163636 3.723636 1.861818 1.163636 0.698182 2.56 1.163636 3.723636 1.861818 1.163636 0.698182 2.327273 1.163636 3.490909 1.861818 1.163636 0.698182 2.327273 1.163636 3.490909 1.861818 1.163636 0.698182 2.327273 1.163636 3.258182 1.861818 1.163636 0.698182 2.094545 1.163636 3.258182 1.861818 1.163636 0.698182 2.094545 1.163636 3.025455 1.861818 0.930909 0.698182 2.094545 1.163636 3.025455 1.861818 0.930909 0.698182 1.861818 1.163636 3.025455 1.861818 0.930909 0.698182 1.861818 1.163636 2.792727 1.861818 0.930909 0.698182 1.861818 1.163636 2.792727 1.861818 0.930909 0.698182 1.861818 1.163636 2.792727 1.861818 0.930909 0.698182 1.861818 1.163636 2.56 1.861818 0.930909 0.698182 1.629091 1.163636 2.56 1.861818 0.930909 0.698182 1.629091 1.163636 2.56 1.861818 0.930909 0.698182 1.629091 1.163636 2.327273 1.861818 0.698182 0.698182 1.629091 1.163636 2.327273 1.861818 0.698182 0.698182 1.629091 1.163636 2.327273 1.861818 0.698182 0.698182 1.396364 1.163636 2.327273 1.861818 0.698182 0.698182 1.396364 1.163636 2.327273 1.861818 0.698182 0.698182 1.396364 1.163636 2.094545 1.861818 0.698182 0.698182 1.396364 1.163636 2.094545 1.861818 0.698182 0.698182 1.396364 1.163636 2.094545 1.861818 0.698182 0.698182 1.396364 1.163636 2.094545 1.861818 0.698182 0.698182 1.396364 1.163636 1.861818 1.861818 0.698182 0.698182 1.396364 1.163636 1.861818 1.861818 0.698182 0.698182 1.163636 1.163636 1.861818 1.861818 0.698182 0.698182 1.163636 1.163636 1.861818 1.861818 0.698182 0.698182 1.163636 1.163636 1.861818 1.861818 0.698182 0.698182 1.163636 1.163636 1.861818 1.861818 0.698182 0.698182 1.163636 1.163636 1.629091 1.861818 0.465455 0.698182 1.163636 1.163636 1.629091 1.861818 0.465455 0.698182 1.163636 1.163636 1.629091 1.861818 0.465455 0.698182 1.163636 1.163636 1.629091 1.861818 0.465455 0.698182 1.163636 1.163636 1.629091 1.861818 0.465455 0.698182 0.930909 1.163636 1.629091 1.861818 0.465455 0.698182 0.930909 1.163636 1.629091 1.861818 0.465455 0.698182 0.930909 1.163636 1.396364 1.861818 0.465455 0.698182 0.930909 1.163636 1.396364 1.861818 0.465455 0.698182 0.930909 1.163636 1.396364 1.861818 0.465455 0.698182 0.930909 1.163636 1.396364 1.861818 0.465455 0.698182 0.930909 1.163636 1.396364 1.861818 0.465455 0.698182 0.930909 1.163636 1.396364 1.861818 0.465455 0.698182 0.930909 1.163636 1.396364 1.861818 0.465455 0.698182 0.930909 1.163636 1.163636 1.861818 0.465455 0.698182 0.930909 1.163636 1.163636 1.861818 0.465455 0.698182 0.930909 1.163636 1.163636 1.861818 0.465455 0.698182 0.698182 1.163636 1.163636 1.861818 0.465455 0.698182 0.698182 1.163636 1.163636 1.861818 0.465455 0.698182 0.698182 1.163636 1.163636 1.861818 0.465455 0.698182 0.698182 1.163636 1.163636 1.861818 0.465455 0.698182 0.698182 1.163636 1.163636 1.861818 0.465455 0.698182 0.698182 1.163636 1.163636 1.861818 0.465455 0.698182 0.698182 1.163636 0.930909 1.861818 0.232727 0.698182 0.698182 1.163636 0.930909 1.861818 0.232727 0.698182 0.698182 1.163636 0.930909 1.861818 0.232727 0.698182 0.698182 1.163636 0.930909 1.861818 0.232727 0.698182 0.698182 1.163636 0.930909 1.861818 0.232727 0.698182 0.698182 1.163636 0.930909 1.861818 0.232727 0.698182 0.698182 1.163636 0.930909 1.861818 0.232727 0.698182 0.698182 1.163636 0.930909 1.861818 0.232727 0.698182 0.465455 1.163636 0.930909 1.861818 0.232727 0.698182 0.465455 1.163636 0.930909 1.861818 0.232727 0.698182 0.465455 1.163636 0.698182 1.861818 0.232727 0.698182 0.465455 1.163636 0.698182 1.861818 0.232727 0.698182 0.465455 1.163636 0.698182 1.861818 0.232727 0.698182 0.465455 1.163636 0.698182 1.861818 0.232727 0.698182 0.465455 1.163636 0.698182 1.861818 0.232727 0.698182 0.465455 1.163636 0.698182 1.861818 0.232727 0.698182 0.465455 1.163636 0.698182 1.861818 0.232727 0.698182 0.465455 1.163636 0.698182 1.861818 0.232727 0.698182 0.465455 1.163636 0.698182 1.861818 0.232727 0.698182 0.465455 1.163636 0.698182 1.861818 0.232727 0.698182 0.465455 1.163636 0.698182 1.861818 0.232727 0.698182 0.465455 1.163636 0.465455 1.861818 0.232727 0.698182 0.465455 1.163636 0.465455 1.861818 0.232727 0.698182 0.232727 1.163636 0.465455 1.861818 0.232727 0.698182 0.465455 1.163636 0.465455 1.861818 0.232727 0.698182 0.232727 1.163636 0.465455 1.861818 0.232727 0.698182 0.232727 1.163636 0.465455 1.861818 0.232727 0.698182 0.232727 1.163636 0.465455 1.861818 0.232727 0.698182 0.232727 1.163636 0.465455 1.861818 0.232727 0.698182 0.232727 1.163636 0.465455 1.861818 0 0.465455 0.232727 0.698182 0.232727 1.163636l0 0c-4.654545-0.465455-9.309091-0.930909-13.963636-1.163636-3.490909-0.232727-6.981818-0.232727-10.705455-0.232727-3.956364 0-8.145455 0-12.101818 0.232727-6.749091 0.232727-13.265455 0.930909-19.549091 1.861818-3.723636 0.465455-7.68 1.163636-11.403636 1.861818-3.025455 0.465455-5.818182 1.163636-8.843636 1.861818-2.56 0.465455-5.12 1.163636-7.447273 1.861818-2.094545 0.465455-4.421818 1.163636-6.516364 1.861818-1.861818 0.465455-3.956364 1.163636-5.818182 1.861818-1.861818 0.465455-3.490909 1.163636-5.352727 1.861818-1.629091 0.698182-3.258182 1.163636-4.887273 1.861818-1.629091 0.698182-3.025455 1.163636-4.654545 1.861818-1.396364 0.698182-3.025455 1.163636-4.421818 1.861818-1.396364 0.698182-2.792727 1.163636-4.189091 1.861818-1.396364 0.698182-2.56 1.163636-3.956364 1.861818-1.163636 0.698182-2.56 1.163636-3.723636 1.861818-1.163636 0.698182-2.327273 1.163636-3.490909 1.861818-1.163636 0.698182-2.327273 1.163636-3.490909 1.861818-1.163636 0.698182-2.094545 1.163636-3.258182 1.861818-0.930909 0.698182-2.094545 1.163636-3.025455 1.861818-0.930909 0.698182-2.094545 1.163636-3.025455 1.861818-0.930909 0.698182-1.861818 1.163636-3.025455 1.861818-0.930909 0.698182-1.861818 1.163636-2.792727 1.861818-0.930909 0.698182-1.861818 1.163636-2.792727 1.861818-0.930909 0.698182-1.861818 1.163636-2.56 1.861818-0.930909 0.698182-1.629091 1.163636-2.56 1.861818-0.930909 0.698182-1.629091 1.163636-2.56 1.861818-0.698182 0.698182-1.629091 1.163636-2.327273 1.861818-0.698182 0.698182-1.629091 1.163636-2.327273 1.861818-0.698182 0.698182-1.629091 1.163636-2.327273 1.861818-0.698182 0.698182-1.396364 1.163636-2.094545 1.861818-0.698182 0.698182-1.396364 1.163636-2.094545 1.861818-0.698182 0.698182-1.396364 1.163636-2.094545 1.861818-0.698182 0.698182-1.396364 1.163636-2.094545 1.861818-0.698182 0.698182-1.396364 1.163636-2.094545 1.861818-0.698182 0.698182-1.396364 1.163636-1.861818 1.861818-0.698182 0.698182-1.163636 1.163636-1.861818 1.861818-0.698182 0.698182-1.163636 1.163636-1.861818 1.861818-0.698182 0.698182-1.163636 1.163636-1.861818 1.861818-0.698182 0.698182-1.163636 1.163636-1.629091 1.861818-0.465455 0.698182-1.163636 1.163636-1.629091 1.861818-0.465455 0.698182-1.163636 1.163636-1.629091 1.861818-0.465455 0.698182-1.163636 1.163636-1.629091 1.861818-0.465455 0.698182-1.163636 1.163636-1.629091 1.861818-0.465455 0.698182-0.930909 1.163636-1.629091 1.861818-0.465455 0.698182-0.930909 1.163636-1.629091 1.861818-0.465455 0.698182-0.930909 1.163636-1.396364 1.861818-0.465455 0.698182-0.930909 1.163636-1.396364 1.861818-0.465455 0.698182-0.930909 1.163636-1.396364 1.861818-0.465455 0.698182-0.930909 1.163636-1.396364 1.861818-0.465455 0.698182-0.930909 1.163636-1.396364 1.861818-0.465455 0.698182-0.930909 1.163636-1.396364 1.861818-0.465455 0.698182-0.930909 1.163636-1.163636 1.861818-0.465455 0.698182-0.930909 1.163636-1.163636 1.861818-0.465455 0.698182-0.698182 1.163636-1.163636 1.861818-0.465455 0.698182-0.698182 1.163636-1.163636 1.861818-0.465455 0.698182-0.698182 1.163636-1.163636 1.861818-0.465455 0.698182-0.698182 1.163636-1.163636 1.861818-0.465455 0.698182-0.698182 1.163636-1.163636 1.861818-0.465455 0.698182-0.698182 1.163636-1.163636 1.861818-0.465455 0.698182-0.698182 1.163636-1.163636 1.861818-0.232727 0.698182-0.698182 1.163636-0.930909 1.861818-0.232727 0.698182-0.698182 1.163636-0.930909 1.861818-0.232727 0.698182-0.698182 1.163636-0.930909 1.861818-0.232727 0.698182-0.698182 1.163636-0.930909 1.861818-0.232727 0.698182-0.698182 1.163636-0.930909 1.861818-0.232727 0.698182-0.698182 1.163636-0.930909 1.861818-0.232727 0.698182-0.698182 1.163636-0.930909 1.861818-0.232727 0.698182-0.465455 1.163636-0.930909 1.861818-0.232727 0.698182-0.465455 1.163636-0.930909 1.861818-0.232727 0.698182-0.465455 1.163636-0.930909 1.861818-0.232727 0.698182-0.465455 1.163636-0.698182 1.861818C438.458182 522.24 438.225455 522.705455 437.992727 523.403636zM871.563636 594.618182l0 1.629091 0 0.232727c0 0.465455 0 0.930909 0 1.396364 0 0.465455 0 0.930909 0 1.629091 0 0.465455 0 0.930909 0 1.629091 0 0.465455 0 0.930909 0 1.629091 0 0.465455 0 0.930909 0 1.629091 0 0.465455 0 0.930909 0 1.629091 0 0.465455 0 0.930909-0.232727 1.629091 0 0.465455 0 0.930909-0.232727 1.629091 0 0.465455 0 0.930909-0.232727 1.629091 0 0.465455-0.232727 0.930909-0.232727 1.629091 0 0.465455-0.232727 0.930909-0.232727 1.629091 0 0.465455-0.232727 0.930909-0.232727 1.629091 0 0.465455-0.232727 0.930909-0.232727 1.629091 0 0.465455-0.232727 0.930909-0.232727 1.629091 0 0.465455-0.232727 0.930909-0.232727 1.629091 0 0.465455-0.232727 0.930909-0.232727 1.629091 0 0.465455-0.232727 0.930909-0.232727 1.629091 0 0.465455-0.232727 0.930909-0.232727 1.629091 0 0.465455-0.232727 0.930909-0.465455 1.629091-0.232727 0.465455-0.232727 0.930909-0.465455 1.629091-0.232727 0.465455-0.232727 0.930909-0.465455 1.629091-0.232727 0.465455-0.232727 0.930909-0.465455 1.629091-0.232727 0.465455-0.232727 0.930909-0.465455 1.629091-0.232727 0.465455-0.232727 0.930909-0.465455 1.629091-0.232727 0.465455-0.232727 0.930909-0.465455 1.629091-0.232727 0.465455-0.232727 0.930909-0.465455 1.629091-0.232727 0.465455-0.232727 0.930909-0.465455 1.629091-0.232727 0.465455-0.232727 0.930909-0.465455 1.629091-0.232727 0.465455-0.465455 0.930909-0.465455 1.629091-0.232727 0.465455-0.465455 0.930909-0.465455 1.629091-0.232727 0.465455-0.465455 0.930909-0.465455 1.629091-0.232727 0.465455-0.465455 0.930909-0.698182 1.629091-0.232727 0.465455-0.465455 0.930909-0.698182 1.629091-0.232727 0.465455-0.465455 0.930909-0.698182 1.629091-0.232727 0.465455-0.465455 0.930909-0.698182 1.629091-0.232727 0.465455-0.465455 0.930909-0.698182 1.629091-0.232727 0.465455-0.465455 0.930909-0.698182 1.629091-0.232727 0.465455-0.465455 0.930909-0.698182 1.629091-0.232727 0.465455-0.465455 0.930909-0.698182 1.629091-0.232727 0.465455-0.465455 0.930909-0.698182 1.629091-0.232727 0.465455-0.465455 0.930909-0.698182 1.629091-0.232727 0.465455-0.465455 0.930909-0.698182 1.629091-0.232727 0.465455-0.465455 0.930909-0.930909 1.629091-0.232727 0.465455-0.465455 0.930909-0.930909 1.629091-0.232727 0.465455-0.465455 0.930909-0.930909 1.629091-0.232727 0.465455-0.465455 0.930909-0.930909 1.629091-0.232727 0.465455-0.698182 0.930909-0.930909 1.629091-0.232727 0.465455-0.698182 0.930909-0.930909 1.629091-0.232727 0.465455-0.698182 0.930909-0.930909 1.629091-0.232727 0.465455-0.698182 0.930909-0.930909 1.629091-0.232727 0.465455-0.698182 0.930909-0.930909 1.629091-0.232727 0.465455-0.698182 0.930909-0.930909 1.629091-0.232727 0.465455-0.698182 0.930909-0.930909 1.629091-0.232727 0.465455-0.698182 0.930909-0.930909 1.629091-0.465455 0.465455-0.698182 0.930909-1.163636 1.629091-0.465455 0.465455-0.698182 0.930909-1.163636 1.629091-0.465455 0.465455-0.698182 0.930909-1.163636 1.629091-0.465455 0.465455-0.698182 0.930909-1.163636 1.629091-0.465455 0.465455-0.698182 0.930909-1.163636 1.629091-0.465455 0.465455-0.698182 0.930909-1.163636 1.629091-0.465455 0.465455-0.698182 0.930909-1.163636 1.629091-0.465455 0.465455-0.698182 0.930909-1.163636 1.629091-0.465455 0.465455-0.698182 0.930909-1.163636 1.629091-0.465455 0.465455-0.930909 0.930909-1.163636 1.629091-0.465455 0.465455-0.930909 0.930909-1.163636 1.629091-0.465455 0.465455-0.930909 0.930909-1.396364 1.629091-0.465455 0.465455-0.930909 0.930909-1.396364 1.629091-0.465455 0.465455-0.930909 0.930909-1.396364 1.629091-0.465455 0.465455-0.930909 0.930909-1.396364 1.629091-0.465455 0.465455-0.930909 0.930909-1.396364 1.629091-0.465455 0.465455-0.930909 0.930909-1.396364 1.629091-0.465455 0.465455-0.930909 0.930909-1.396364 1.629091-0.465455 0.465455-0.930909 0.930909-1.396364 1.629091-0.465455 0.465455-0.930909 0.930909-1.396364 1.629091-0.465455 0.465455-0.930909 0.930909-1.396364 1.629091-0.465455 0.465455-0.930909 0.930909-1.629091 1.629091-0.465455 0.465455-0.930909 0.930909-1.629091 1.629091-0.465455 0.465455-1.163636 0.930909-1.629091 1.629091-0.465455 0.465455-1.163636 0.930909-1.629091 1.629091-0.465455 0.465455-1.163636 0.930909-1.629091 1.629091-0.465455 0.465455-1.163636 0.930909-1.629091 1.629091-0.465455 0.465455-1.163636 0.930909-1.629091 1.629091-0.465455 0.465455-1.163636 0.930909-1.629091 1.629091-0.465455 0.465455-1.163636 0.930909-1.629091 1.629091-0.698182 0.465455-1.163636 0.930909-1.861818 1.629091-0.698182 0.465455-1.163636 0.930909-1.861818 1.629091-0.698182 0.465455-1.163636 0.930909-1.861818 1.629091-0.698182 0.465455-1.163636 0.930909-1.861818 1.629091-0.698182 0.465455-1.163636 0.930909-1.861818 1.629091-0.698182 0.465455-1.163636 0.930909-1.861818 1.629091-0.698182 0.465455-1.396364 0.930909-1.861818 1.629091-0.698182 0.465455-1.396364 0.930909-1.861818 1.629091-0.698182 0.465455-1.396364 0.930909-2.094545 1.629091-0.698182 0.465455-1.396364 0.930909-2.094545 1.629091l-0.698182 0.465455 0.232727 0.930909 0.465455 1.629091 0.465455 1.629091 0.465455 1.629091 0.465455 1.629091 0.465455 1.629091 0.465455 1.629091 0.465455 1.629091 0.465455 1.629091 0.465455 1.629091 0.465455 1.629091 0.465455 1.629091 0.465455 1.629091 0.465455 1.629091 0.465455 1.629091 0.465455 1.629091 0.465455 1.629091 0.465455 1.629091 0.465455 1.629091 0.465455 1.629091 0.465455 1.629091 0.465455 1.629091 0.465455 1.629091 0.465455 1.629091 0.465455 1.629091 0.465455 1.629091 0.465455 1.629091 0.465455 1.629091 0.465455 1.629091 0.465455 1.629091 0.465455 1.629091 0.465455 1.629091 0.465455 1.629091 0.465455 1.629091 0.465455 1.629091 0.465455 1.629091 0.465455 1.629091 0.465455 1.629091 0.465455 1.629091 0.465455 1.629091 0.465455 1.629091 0.232727 1.163636-2.094545-1.163636-2.792727-1.629091-2.792727-1.629091-2.792727-1.629091-2.792727-1.629091-2.792727-1.629091-2.792727-1.629091-2.792727-1.629091-2.792727-1.629091-2.792727-1.629091-2.792727-1.629091-2.792727-1.629091-2.792727-1.629091-2.792727-1.629091-2.792727-1.629091-2.792727-1.629091-2.792727-1.629091-2.792727-1.629091-2.792727-1.629091-2.792727-1.629091-2.792727-1.629091-2.792727-1.629091-2.792727-1.629091-2.792727-1.629091-2.792727-1.629091-0.465455-0.232727-0.930909 0.232727c-2.094545 0.465455-4.189091 0.930909-6.050909 1.629091-2.094545 0.465455-4.189091 0.930909-6.283636 1.629091-2.094545 0.465455-4.189091 0.930909-6.516364 1.629091-2.327273 0.465455-4.421818 0.930909-6.749091 1.629091-2.327273 0.465455-4.887273 1.163636-7.214545 1.629091-2.792727 0.465455-5.352727 1.163636-8.145455 1.629091-3.258182 0.465455-6.516364 1.163636-9.774545 1.629091-5.352727 0.698182-10.705455 1.163636-15.825455 1.629091-2.792727 0.232727-5.818182 0.232727-8.610909 0.232727-3.723636 0-7.447273 0-11.170909-0.232727-6.516364-0.232727-12.8-0.698182-19.083636-1.629091-3.723636-0.465455-7.447273-0.930909-10.938182-1.629091-2.792727-0.465455-5.818182-0.930909-8.610909-1.629091-2.327273-0.465455-4.887273-0.930909-7.214545-1.629091-2.094545-0.465455-4.189091-0.930909-6.283636-1.629091-1.861818-0.465455-3.723636-0.930909-5.585455-1.629091-1.861818-0.465455-3.490909-0.930909-5.12-1.629091-1.629091-0.465455-3.258182-0.930909-4.887273-1.629091-1.396364-0.465455-3.025455-0.930909-4.421818-1.629091-1.396364-0.465455-2.792727-0.930909-4.189091-1.629091-1.396364-0.465455-2.56-0.930909-3.956364-1.629091-1.163636-0.465455-2.56-0.930909-3.723636-1.629091-1.163636-0.465455-2.327273-0.930909-3.723636-1.629091-1.163636-0.465455-2.327273-0.930909-3.490909-1.629091-1.163636-0.465455-2.094545-0.930909-3.258182-1.629091-1.163636-0.465455-2.094545-0.930909-3.258182-1.629091-0.930909-0.465455-2.094545-0.930909-3.025455-1.629091-0.930909-0.465455-1.861818-0.930909-3.025455-1.629091-0.930909-0.465455-1.861818-0.930909-2.792727-1.629091-0.930909-0.465455-1.861818-0.930909-2.792727-1.629091-0.930909-0.465455-1.861818-0.930909-2.56-1.629091-0.930909-0.465455-1.629091-0.930909-2.56-1.629091-0.930909-0.465455-1.629091-0.930909-2.56-1.629091-0.698182-0.465455-1.629091-0.930909-2.327273-1.629091-0.698182-0.465455-1.629091-0.930909-2.327273-1.629091-0.698182-0.465455-1.629091-0.930909-2.327273-1.629091-0.698182-0.465455-1.396364-0.930909-2.327273-1.629091-0.698182-0.465455-1.396364-0.930909-2.094545-1.629091-0.698182-0.465455-1.396364-0.930909-2.094545-1.629091-0.698182-0.465455-1.396364-0.930909-2.094545-1.629091-0.698182-0.465455-1.396364-0.930909-2.094545-1.629091-0.698182-0.465455-1.396364-0.930909-1.861818-1.629091-0.698182-0.465455-1.396364-0.930909-1.861818-1.629091-0.698182-0.465455-1.163636-0.930909-1.861818-1.629091-0.698182-0.465455-1.163636-0.930909-1.861818-1.629091-0.698182-0.465455-1.163636-0.930909-1.861818-1.629091-0.698182-0.465455-1.163636-0.930909-1.861818-1.629091-0.465455-0.465455-1.163636-0.930909-1.629091-1.629091-0.465455-0.465455-1.163636-0.930909-1.629091-1.629091-0.465455-0.465455-1.163636-0.930909-1.629091-1.629091-0.465455-0.465455-1.163636-0.930909-1.629091-1.629091-0.465455-0.465455-0.930909-0.930909-1.629091-1.629091-0.465455-0.465455-0.930909-0.930909-1.629091-1.629091-0.465455-0.465455-0.930909-0.930909-1.396364-1.629091-0.465455-0.465455-0.930909-0.930909-1.396364-1.629091-0.465455-0.465455-0.930909-0.930909-1.396364-1.629091-0.465455-0.465455-0.930909-0.930909-1.396364-1.629091-0.465455-0.465455-0.930909-0.930909-1.396364-1.629091-0.465455-0.465455-0.930909-0.930909-1.396364-1.629091-0.465455-0.465455-0.930909-0.930909-1.396364-1.629091-0.465455-0.465455-0.930909-0.930909-1.163636-1.629091-0.465455-0.465455-0.930909-0.930909-1.163636-1.629091-0.465455-0.465455-0.930909-0.930909-1.163636-1.629091-0.465455-0.465455-0.698182-0.930909-1.163636-1.629091-0.465455-0.465455-0.698182-0.930909-1.163636-1.629091-0.465455-0.465455-0.698182-0.930909-1.163636-1.629091-0.465455-0.465455-0.698182-0.930909-1.163636-1.629091-0.465455-0.465455-0.698182-0.930909-1.163636-1.629091-0.465455-0.465455-0.698182-0.930909-1.163636-1.629091-0.465455-0.465455-0.698182-0.930909-1.163636-1.629091-0.232727-0.465455-0.698182-0.930909-0.930909-1.629091-0.232727-0.465455-0.698182-0.930909-0.930909-1.629091-0.232727-0.465455-0.698182-0.930909-0.930909-1.629091-0.232727-0.465455-0.698182-0.930909-0.930909-1.629091-0.232727-0.465455-0.698182-0.930909-0.930909-1.629091-0.232727-0.465455-0.698182-0.930909-0.930909-1.629091-0.232727-0.465455-0.698182-0.930909-0.930909-1.629091-0.232727-0.465455-0.698182-0.930909-0.930909-1.629091-0.232727-0.465455-0.465455-0.930909-0.930909-1.629091-0.232727-0.465455-0.465455-0.930909-0.930909-1.629091-0.232727-0.465455-0.465455-0.930909-0.698182-1.629091-0.232727-0.465455-0.465455-0.930909-0.698182-1.629091-0.232727-0.465455-0.465455-0.930909-0.698182-1.629091-0.232727-0.465455-0.465455-0.930909-0.698182-1.629091-0.232727-0.465455-0.465455-0.930909-0.698182-1.629091-0.232727-0.465455-0.465455-0.930909-0.698182-1.629091-0.232727-0.465455-0.465455-0.930909-0.698182-1.629091-0.232727-0.465455-0.465455-0.930909-0.698182-1.629091-0.232727-0.465455-0.465455-0.930909-0.698182-1.629091-0.232727-0.465455-0.465455-0.930909-0.698182-1.629091-0.232727-0.465455-0.465455-0.930909-0.698182-1.629091-0.232727-0.465455-0.465455-0.930909-0.698182-1.629091-0.232727-0.465455-0.465455-0.930909-0.465455-1.629091-0.232727-0.465455-0.465455-0.930909-0.465455-1.629091-0.232727-0.465455-0.465455-0.930909-0.465455-1.629091-0.232727-0.465455-0.465455-0.930909-0.465455-1.629091-0.232727-0.465455-0.465455-0.930909-0.465455-1.629091-0.232727-0.465455-0.232727-0.930909-0.465455-1.629091-0.232727-0.465455-0.232727-0.930909-0.465455-1.629091-0.232727-0.465455-0.232727-0.930909-0.465455-1.629091-0.232727-0.465455-0.232727-0.930909-0.465455-1.629091-0.232727-0.465455-0.232727-0.930909-0.465455-1.629091-0.232727-0.465455-0.232727-0.930909-0.465455-1.629091-0.232727-0.465455-0.232727-0.930909-0.465455-1.629091-0.232727-0.465455-0.232727-0.930909-0.465455-1.629091-0.232727-0.465455-0.232727-0.930909-0.465455-1.629091-0.232727-0.465455-0.232727-0.930909-0.232727-1.629091 0-0.465455-0.232727-0.930909-0.232727-1.629091 0-0.465455-0.232727-0.930909-0.232727-1.629091 0-0.465455-0.232727-0.930909-0.232727-1.629091 0-0.465455-0.232727-0.930909-0.232727-1.629091 0-0.465455-0.232727-0.930909-0.232727-1.629091 0-0.465455-0.232727-0.930909-0.232727-1.629091 0-0.465455-0.232727-0.930909-0.232727-1.629091 0-0.465455-0.232727-0.930909-0.232727-1.629091 0-0.465455-0.232727-0.930909-0.232727-1.629091 0-0.465455-0.232727-0.930909-0.232727-1.629091 0-0.465455-0.232727-0.930909-0.232727-1.629091 0-0.465455 0-0.930909-0.232727-1.629091 0-0.465455 0-0.930909-0.232727-1.629091 0-0.465455 0-0.930909-0.232727-1.629091 0-0.465455 0-0.930909 0-1.629091 0-0.465455 0-0.930909 0-1.629091 0-0.465455 0-0.930909 0-1.629091 0-0.465455 0-0.930909 0-1.629091l0-1.629091c0-0.465455 0-0.930909 0-1.629091 0-0.465455 0-0.930909 0-1.629091l0-1.629091c0-0.465455 0-0.930909 0-1.396364l0 0c0-0.465455 0-0.930909 0-1.629091 0-0.465455 0-0.930909 0-1.629091 0-0.465455 0-0.930909 0-1.629091 0-0.465455 0-0.930909 0-1.629091 0-0.465455 0-0.930909 0-1.629091 0-0.465455 0-0.930909 0-1.629091 0-0.465455 0-0.930909 0-1.629091 0-0.465455 0-0.930909 0-1.629091 0-0.465455 0-0.930909 0-1.629091 0-0.465455 0-0.930909 0.232727-1.629091 0-0.465455 0-0.930909 0.232727-1.629091 0-0.465455 0-0.930909 0.232727-1.629091 0-0.465455 0.232727-0.930909 0.232727-1.629091 0-0.465455 0.232727-0.930909 0.232727-1.629091 0-0.465455 0.232727-0.930909 0.232727-1.629091 0-0.465455 0.232727-0.930909 0.232727-1.629091 0-0.465455 0.232727-0.930909 0.232727-1.629091 0-0.465455 0.232727-0.930909 0.232727-1.629091 0-0.465455 0.232727-0.930909 0.232727-1.629091 0-0.465455 0.232727-0.930909 0.232727-1.629091 0-0.465455 0.232727-0.930909 0.232727-1.629091 0-0.465455 0.232727-0.930909 0.232727-1.629091 0-0.465455 0.232727-0.930909 0.232727-1.629091 0-0.465455 0.232727-0.930909 0.232727-1.629091 0.232727-0.465455 0.232727-0.930909 0.465455-1.629091 0.232727-0.465455 0.232727-0.930909 0.465455-1.629091 0.232727-0.465455 0.232727-0.930909 0.465455-1.629091 0.232727-0.465455 0.232727-0.930909 0.465455-1.629091 0.232727-0.465455 0.232727-0.930909 0.465455-1.629091 0.232727-0.465455 0.232727-0.930909 0.465455-1.629091 0.232727-0.465455 0.232727-0.930909 0.465455-1.629091 0.232727-0.465455 0.232727-0.930909 0.465455-1.629091 0.232727-0.465455 0.232727-0.930909 0.465455-1.629091 0.232727-0.465455 0.465455-0.930909 0.465455-1.629091 0.232727-0.465455 0.465455-0.930909 0.465455-1.629091 0.232727-0.465455 0.465455-0.930909 0.465455-1.629091 0.232727-0.465455 0.465455-0.930909 0.465455-1.629091 0.232727-0.465455 0.465455-0.930909 0.465455-1.629091 0.232727-0.465455 0.465455-0.930909 0.698182-1.629091 0.232727-0.465455 0.465455-0.930909 0.698182-1.629091 0.232727-0.465455 0.465455-0.930909 0.698182-1.629091 0.232727-0.465455 0.465455-0.930909 0.698182-1.629091 0.232727-0.465455 0.465455-0.930909 0.698182-1.629091 0.232727-0.465455 0.465455-0.930909 0.698182-1.629091 0.232727-0.465455 0.465455-0.930909 0.698182-1.629091 0.232727-0.465455 0.465455-0.930909 0.698182-1.629091 0.232727-0.465455 0.465455-0.930909 0.698182-1.629091 0.232727-0.465455 0.465455-0.930909 0.698182-1.629091 0.232727-0.465455 0.465455-0.930909 0.698182-1.629091 0.232727-0.465455 0.465455-0.930909 0.930909-1.629091 0.232727-0.465455 0.465455-0.930909 0.930909-1.629091 0.232727-0.465455 0.465455-0.930909 0.930909-1.629091 0.232727-0.465455 0.698182-0.930909 0.930909-1.629091 0.232727-0.465455 0.698182-0.930909 0.930909-1.629091 0.232727-0.465455 0.698182-0.930909 0.930909-1.629091 0.232727-0.465455 0.698182-0.930909 0.930909-1.629091 0.232727-0.465455 0.698182-0.930909 0.930909-1.629091 0.232727-0.465455 0.698182-0.930909 0.930909-1.629091 0.232727-0.465455 0.698182-0.930909 0.930909-1.629091 0.232727-0.465455 0.698182-0.930909 0.930909-1.629091 0.232727-0.465455 0.698182-0.930909 1.163636-1.629091 0.465455-0.465455 0.698182-0.930909 1.163636-1.629091 0.465455-0.465455 0.698182-0.930909 1.163636-1.629091 0.465455-0.465455 0.698182-0.930909 1.163636-1.629091 0.465455-0.465455 0.698182-0.930909 1.163636-1.629091 0.465455-0.465455 0.698182-0.930909 1.163636-1.629091 0.465455-0.465455 0.698182-0.930909 1.163636-1.629091 0.465455-0.465455 0.930909-0.930909 1.163636-1.629091 0.465455-0.465455 0.930909-0.930909 1.163636-1.629091 0.465455-0.465455 0.930909-0.930909 1.163636-1.629091 0.465455-0.465455 0.930909-0.930909 1.396364-1.629091 0.465455-0.465455 0.930909-0.930909 1.396364-1.629091 0.465455-0.465455 0.930909-0.930909 1.396364-1.629091 0.465455-0.465455 0.930909-0.930909 1.396364-1.629091 0.465455-0.465455 0.930909-0.930909 1.396364-1.629091 0.465455-0.465455 0.930909-0.930909 1.396364-1.629091 0.465455-0.465455 0.930909-0.930909 1.396364-1.629091 0.465455-0.465455 0.930909-0.930909 1.629091-1.629091 0.465455-0.465455 0.930909-0.930909 1.629091-1.629091 0.465455-0.465455 1.163636-0.930909 1.629091-1.629091 0.465455-0.465455 1.163636-0.930909 1.629091-1.629091 0.465455-0.465455 1.163636-0.930909 1.629091-1.629091 0.465455-0.465455 1.163636-0.930909 1.629091-1.629091 0.465455-0.465455 1.163636-0.930909 1.861818-1.629091 0.698182-0.465455 1.163636-0.930909 1.861818-1.629091 0.698182-0.465455 1.163636-0.930909 1.861818-1.629091 0.698182-0.465455 1.163636-0.930909 1.861818-1.629091 0.698182-0.465455 1.396364-0.930909 1.861818-1.629091 0.698182-0.465455 1.396364-0.930909 1.861818-1.629091 0.698182-0.465455 1.396364-0.930909 2.094545-1.629091 0.698182-0.465455 1.396364-0.930909 2.094545-1.629091 0.698182-0.465455 1.396364-0.930909 2.094545-1.629091 0.698182-0.465455 1.396364-0.930909 2.094545-1.629091 0.698182-0.465455 1.396364-0.930909 2.327273-1.629091 0.698182-0.465455 1.629091-0.930909 2.327273-1.629091 0.698182-0.465455 1.629091-0.930909 2.327273-1.629091 0.698182-0.465455 1.629091-0.930909 2.327273-1.629091 0.930909-0.465455 1.629091-0.930909 2.56-1.629091 0.930909-0.465455 1.629091-0.930909 2.56-1.629091 0.930909-0.465455 1.861818-0.930909 2.56-1.629091 0.930909-0.465455 1.861818-0.930909 2.792727-1.629091 0.930909-0.465455 1.861818-0.930909 2.792727-1.629091 0.930909-0.465455 1.861818-0.930909 3.025455-1.629091 0.930909-0.465455 2.094545-0.930909 3.025455-1.629091 1.163636-0.465455 2.094545-0.930909 3.258182-1.629091 1.163636-0.465455 2.094545-0.930909 3.258182-1.629091 1.163636-0.465455 2.327273-0.930909 3.490909-1.629091 1.163636-0.465455 2.327273-0.930909 3.723636-1.629091 1.163636-0.465455 2.56-0.930909 3.723636-1.629091 1.396364-0.465455 2.56-0.930909 3.956364-1.629091 1.396364-0.465455 2.792727-0.930909 4.189091-1.629091 1.396364-0.465455 3.025455-0.930909 4.421818-1.629091 1.629091-0.465455 3.258182-0.930909 4.887273-1.629091 1.629091-0.465455 3.490909-0.930909 5.12-1.629091 1.861818-0.465455 3.723636-0.930909 5.818182-1.629091 2.094545-0.465455 4.189091-1.163636 6.283636-1.629091 2.327273-0.465455 4.887273-1.163636 7.214545-1.629091 2.792727-0.465455 5.818182-1.163636 8.610909-1.629091 3.723636-0.698182 7.447273-1.163636 11.170909-1.629091 9.309091-1.163636 19.083636-1.629091 28.858182-1.629091l1.396364 0c9.309091 0 18.385455 0.698182 27.461818 1.629091 3.723636 0.465455 7.214545 0.930909 10.705455 1.629091 2.792727 0.465455 5.585455 0.930909 8.378182 1.629091 2.327273 0.465455 4.654545 0.930909 6.981818 1.629091 2.094545 0.465455 4.189091 0.930909 6.283636 1.629091 1.861818 0.465455 3.723636 0.930909 5.585455 1.629091 1.629091 0.465455 3.490909 0.930909 5.12 1.629091 1.629091 0.465455 3.258182 0.930909 4.654545 1.629091 1.396364 0.465455 3.025455 0.930909 4.421818 1.629091 1.396364 0.465455 2.792727 0.930909 4.189091 1.629091 1.396364 0.465455 2.56 0.930909 3.956364 1.629091 1.163636 0.465455 2.56 0.930909 3.723636 1.629091 1.163636 0.465455 2.327273 0.930909 3.490909 1.629091 1.163636 0.465455 2.327273 0.930909 3.490909 1.629091 1.163636 0.465455 2.094545 0.930909 3.258182 1.629091 1.163636 0.465455 2.094545 0.930909 3.258182 1.629091 0.930909 0.465455 2.094545 0.930909 3.025455 1.629091 0.930909 0.465455 1.861818 0.930909 3.025455 1.629091 0.930909 0.465455 1.861818 0.930909 2.792727 1.629091 0.930909 0.465455 1.861818 0.930909 2.792727 1.629091 0.930909 0.465455 1.861818 0.930909 2.56 1.629091 0.930909 0.465455 1.629091 0.930909 2.56 1.629091 0.930909 0.465455 1.629091 0.930909 2.56 1.629091 0.930909 0.465455 1.629091 0.930909 2.56 1.629091 0.698182 0.465455 1.629091 0.930909 2.327273 1.629091 0.698182 0.465455 1.629091 0.930909 2.327273 1.629091 0.698182 0.465455 1.396364 0.930909 2.327273 1.629091 0.698182 0.465455 1.396364 0.930909 2.094545 1.629091 0.698182 0.465455 1.396364 0.930909 2.094545 1.629091 0.698182 0.465455 1.396364 0.930909 2.094545 1.629091 0.698182 0.465455 1.396364 0.930909 2.094545 1.629091 0.698182 0.465455 1.396364 0.930909 1.861818 1.629091 0.698182 0.465455 1.396364 0.930909 1.861818 1.629091 0.698182 0.465455 1.163636 0.930909 1.861818 1.629091 0.698182 0.465455 1.163636 0.930909 1.861818 1.629091 0.698182 0.465455 1.163636 0.930909 1.861818 1.629091 0.698182 0.465455 1.163636 0.930909 1.861818 1.629091 0.465455 0.465455 1.163636 0.930909 1.629091 1.629091 0.465455 0.465455 1.163636 0.930909 1.629091 1.629091 0.465455 0.465455 1.163636 0.930909 1.629091 1.629091 0.465455 0.465455 1.163636 0.930909 1.629091 1.629091 0.465455 0.465455 1.163636 0.930909 1.629091 1.629091 0.465455 0.465455 0.930909 0.930909 1.629091 1.629091 0.465455 0.465455 0.930909 0.930909 1.629091 1.629091 0.465455 0.465455 0.930909 0.930909 1.396364 1.629091 0.465455 0.465455 0.930909 0.930909 1.396364 1.629091 0.465455 0.465455 0.930909 0.930909 1.396364 1.629091 0.465455 0.465455 0.930909 0.930909 1.396364 1.629091 0.465455 0.465455 0.930909 0.930909 1.396364 1.629091 0.465455 0.465455 0.930909 0.930909 1.396364 1.629091 0.465455 0.465455 0.930909 0.930909 1.396364 1.629091 0.465455 0.465455 0.930909 0.930909 1.396364 1.629091 0.465455 0.465455 0.930909 0.930909 1.163636 1.629091 0.465455 0.465455 0.698182 0.930909 1.163636 1.629091 0.465455 0.465455 0.930909 0.930909 1.163636 1.629091 0.465455 0.465455 0.698182 0.930909 1.163636 1.629091 0.465455 0.465455 0.698182 0.930909 1.163636 1.629091 0.465455 0.465455 0.698182 0.930909 1.163636 1.629091 0.465455 0.465455 0.698182 0.930909 1.163636 1.629091 0.465455 0.465455 0.698182 0.930909 1.163636 1.629091 0.465455 0.465455 0.698182 0.930909 1.163636 1.629091 0.465455 0.465455 0.698182 0.930909 0.930909 1.629091 0.232727 0.465455 0.698182 0.930909 0.930909 1.629091 0.232727 0.465455 0.698182 0.930909 0.930909 1.629091 0.232727 0.465455 0.698182 0.930909 0.930909 1.629091 0.232727 0.465455 0.698182 0.930909 0.930909 1.629091 0.232727 0.465455 0.698182 0.930909 0.930909 1.629091 0.232727 0.465455 0.698182 0.930909 0.930909 1.629091 0.232727 0.465455 0.465455 0.930909 0.930909 1.629091 0.232727 0.465455 0.698182 0.930909 0.930909 1.629091 0.232727 0.465455 0.465455 0.930909 0.930909 1.629091 0.232727 0.465455 0.465455 0.930909 0.930909 1.629091 0.232727 0.465455 0.465455 0.930909 0.930909 1.629091 0.232727 0.465455 0.465455 0.930909 0.698182 1.629091 0.232727 0.465455 0.465455 0.930909 0.698182 1.629091 0.232727 0.465455 0.465455 0.930909 0.698182 1.629091 0.232727 0.465455 0.465455 0.930909 0.698182 1.629091 0.232727 0.465455 0.465455 0.930909 0.698182 1.629091 0.232727 0.465455 0.465455 0.930909 0.698182 1.629091 0.232727 0.465455 0.465455 0.930909 0.698182 1.629091 0.232727 0.465455 0.465455 0.930909 0.698182 1.629091 0.232727 0.465455 0.465455 0.930909 0.698182 1.629091 0.232727 0.465455 0.465455 0.930909 0.698182 1.629091 0.232727 0.465455 0.465455 0.930909 0.698182 1.629091 0.232727 0.465455 0.465455 0.930909 0.465455 1.629091 0.232727 0.465455 0.465455 0.930909 0.465455 1.629091 0.232727 0.465455 0.465455 0.930909 0.465455 1.629091 0.232727 0.465455 0.232727 0.930909 0.465455 1.629091 0.232727 0.465455 0.232727 0.930909 0.465455 1.629091 0.232727 0.465455 0.232727 0.930909 0.465455 1.629091 0.232727 0.465455 0.232727 0.930909 0.465455 1.629091 0.232727 0.465455 0.232727 0.930909 0.465455 1.629091 0.232727 0.465455 0.232727 0.930909 0.465455 1.629091 0.232727 0.465455 0.232727 0.930909 0.465455 1.629091 0.232727 0.465455 0.232727 0.930909 0.465455 1.629091 0.232727 0.465455 0.232727 0.930909 0.465455 1.629091 0.232727 0.465455 0.232727 0.930909 0.465455 1.629091 0.232727 0.465455 0.232727 0.930909 0.465455 1.629091 0.232727 0.465455 0.232727 0.930909 0.465455 1.629091 0 0.465455 0.232727 0.930909 0.232727 1.629091 0 0.465455 0.232727 0.930909 0.232727 1.629091 0 0.465455 0.232727 0.930909 0.232727 1.629091 0 0.465455 0.232727 0.930909 0.232727 1.629091 0 0.465455 0.232727 0.930909 0.232727 1.629091 0 0.465455 0.232727 0.930909 0.232727 1.629091 0 0.465455 0.232727 0.930909 0.232727 1.629091 0 0.465455 0.232727 0.930909 0.232727 1.629091 0 0.465455 0.232727 0.930909 0.232727 1.629091 0 0.465455 0 0.930909 0.232727 1.629091 0 0.465455 0 0.930909 0.232727 1.629091 0 0.465455 0 0.930909 0.232727 1.629091 0 0.465455 0 0.930909 0.232727 1.629091 0 0.465455 0 0.930909 0.232727 1.629091 0 0.465455 0 0.930909 0 1.629091 0 0.465455 0 0.930909 0 1.629091 0 0.465455 0 0.930909 0 1.629091 0 0.465455 0 0.930909 0 1.629091 0 0.465455 0 0.930909 0 1.629091 0 0.465455 0 0.930909 0 1.629091l0 0.465455L872.261818 594.618182z" p-id="3294" fill="#3cb035"></path><path d="M585.309091 512c-12.567273 0-25.367273 12.8-25.367273 25.367273 0 12.8 12.8 25.367273 25.367273 25.367273 19.316364 0 31.883636-12.567273 31.883636-25.367273C616.96 524.8 604.392727 512 585.309091 512z" p-id="3295" fill="#3cb035"></path><path d="M725.178182 512c-12.567273 0-25.367273 12.8-25.367273 25.367273 0 12.8 12.8 25.367273 25.367273 25.367273 19.083636 0 31.883636-12.567273 31.883636-25.367273C757.061818 524.8 744.261818 512 725.178182 512z" p-id="3296" fill="#3cb035"></path><path d="M324.189091 327.214545c-19.083636 0-38.4 12.567273-38.4 31.650909 0 19.083636 19.316364 31.883636 38.4 31.883636 19.083636 0 31.883636-12.8 31.883636-31.883636C356.072727 339.781818 343.272727 327.214545 324.189091 327.214545z" p-id="3297" fill="#3cb035"></path><path d="M502.458182 327.214545c-19.083636 0-38.167273 12.567273-38.167273 31.650909 0 19.083636 19.083636 31.883636 38.167273 31.883636 19.083636 0 31.883636-12.8 31.883636-31.883636C534.341818 339.781818 521.541818 327.214545 502.458182 327.214545z" p-id="3298" fill="#3cb035"></path></svg>